<?xml version="1.0" encoding="UTF-8" standalone="no"?>
<svg
   xmlns:dc="http://purl.org/dc/elements/1.1/"
   xmlns:cc="http://creativecommons.org/ns#"
   xmlns:rdf="http://www.w3.org/1999/02/22-rdf-syntax-ns#"
   xmlns:svg="http://www.w3.org/2000/svg"
   xmlns="http://www.w3.org/2000/svg"
   id="svg2451"
   viewBox="0, 0, 128, 128"
   height="128"
   width="128"
   y="0px"
   x="0px"
   version="1.1">
  <metadata
     id="metadata2455">
    <rdf:RDF>
      <cc:Work
         rdf:about="">
        <dc:format>image/svg+xml</dc:format>
        <dc:type
           rdf:resource="http://purl.org/dc/dcmitype/StillImage" />
        <dc:title></dc:title>
      </cc:Work>
    </rdf:RDF>
  </metadata>
  <g
     transform="matrix(1.2705,0,0,1.2705,-28.882197,-27.900779)"
     id="Background">
    <rect
       style="fill:#000000;fill-opacity:0"
       id="rect2434"
       height="128"
       width="128"
       y="0"
       x="0" />
  </g>
  <g
     id="g2447">
    <g
       style="fill:#ebeded;fill-opacity:1"
       id="g3681"
       transform="matrix(0.2025,0,0,0.2025,11.313137,17.859557)" />
    <g
       style="fill:#ebeded;fill-opacity:1"
       id="g3683"
       transform="matrix(0.2025,0,0,0.2025,11.313137,17.859557)" />
    <g
       style="fill:#ebeded;fill-opacity:1"
       id="g3685"
       transform="matrix(0.2025,0,0,0.2025,11.313137,17.859557)" />
    <g
       style="fill:#ebeded;fill-opacity:1"
       id="g3687"
       transform="matrix(0.2025,0,0,0.2025,11.313137,17.859557)" />
    <g
       style="fill:#ebeded;fill-opacity:1"
       id="g3689"
       transform="matrix(0.2025,0,0,0.2025,11.313137,17.859557)" />
    <g
       style="fill:#ebeded;fill-opacity:1"
       id="g3691"
       transform="matrix(0.2025,0,0,0.2025,11.313137,17.859557)" />
    <g
       style="fill:#ebeded;fill-opacity:1"
       id="g3693"
       transform="matrix(0.2025,0,0,0.2025,11.313137,17.859557)" />
    <g
       style="fill:#ebeded;fill-opacity:1"
       id="g3695"
       transform="matrix(0.2025,0,0,0.2025,11.313137,17.859557)" />
    <g
       style="fill:#ebeded;fill-opacity:1"
       id="g3697"
       transform="matrix(0.2025,0,0,0.2025,11.313137,17.859557)" />
    <g
       style="fill:#ebeded;fill-opacity:1"
       id="g3699"
       transform="matrix(0.2025,0,0,0.2025,11.313137,17.859557)" />
    <g
       style="fill:#ebeded;fill-opacity:1"
       id="g3701"
       transform="matrix(0.2025,0,0,0.2025,11.313137,17.859557)" />
    <g
       style="fill:#ebeded;fill-opacity:1"
       id="g3703"
       transform="matrix(0.2025,0,0,0.2025,11.313137,17.859557)" />
    <g
       style="fill:#ebeded;fill-opacity:1"
       id="g3705"
       transform="matrix(0.2025,0,0,0.2025,11.313137,17.859557)" />
    <g
       style="fill:#ebeded;fill-opacity:1"
       id="g3707"
       transform="matrix(0.2025,0,0,0.2025,11.313137,17.859557)" />
    <g
       style="fill:#ebeded;fill-opacity:1"
       id="g3709"
       transform="matrix(0.2025,0,0,0.2025,11.313137,17.859557)" />
    <g
       style="fill:#737370;fill-opacity:1;stroke:none"
       id="g599"
       transform="matrix(0.51884044,0,0,0.51884044,-65.847195,-54.488427)">
      <polygon
         transform="matrix(0.1356032,0.2932032,-0.00416466,0.97115047,323.55068,-54.480993)"
         id="polygon597"
         points="184.642,143.629 340.526,71.579 340.526,274.219 184.642,357.35 "
         style="fill:#737370;fill-opacity:1;stroke:none" />
      <rect
         y="139.58749"
         x="133.37123"
         height="207.25262"
         width="207.25262"
         id="rect1581"
         style="fill:#737370;fill-opacity:1;stroke:none;stroke-width:2.33212352;stroke-opacity:1" />
      <polygon
         transform="matrix(-0.31823348,-0.13560319,-0.97038174,0.00416466,540.83715,157.00748)"
         id="polygon597-3"
         points="340.526,274.219 184.642,357.35 184.642,143.629 340.526,71.579 "
         style="fill:#737370;fill-opacity:1;stroke:none" />
    </g>
    <g
       id="g601"
       transform="matrix(0.3375,0,0,0.3375,136.96358,-2.8188527)" />
    <g
       id="g603"
       transform="matrix(0.3375,0,0,0.3375,136.96358,-2.8188527)" />
    <g
       id="g605"
       transform="matrix(0.3375,0,0,0.3375,136.96358,-2.8188527)" />
    <g
       id="g607"
       transform="matrix(0.3375,0,0,0.3375,136.96358,-2.8188527)" />
    <g
       id="g609"
       transform="matrix(0.3375,0,0,0.3375,136.96358,-2.8188527)" />
    <g
       id="g611"
       transform="matrix(0.3375,0,0,0.3375,136.96358,-2.8188527)" />
    <g
       id="g613"
       transform="matrix(0.3375,0,0,0.3375,136.96358,-2.8188527)" />
    <g
       id="g615"
       transform="matrix(0.3375,0,0,0.3375,136.96358,-2.8188527)" />
    <g
       id="g617"
       transform="matrix(0.3375,0,0,0.3375,136.96358,-2.8188527)" />
    <g
       id="g619"
       transform="matrix(0.3375,0,0,0.3375,136.96358,-2.8188527)" />
    <g
       id="g621"
       transform="matrix(0.3375,0,0,0.3375,136.96358,-2.8188527)" />
    <g
       id="g623"
       transform="matrix(0.3375,0,0,0.3375,136.96358,-2.8188527)" />
    <g
       id="g625"
       transform="matrix(0.3375,0,0,0.3375,136.96358,-2.8188527)" />
    <g
       id="g627"
       transform="matrix(0.3375,0,0,0.3375,136.96358,-2.8188527)" />
    <g
       id="g629"
       transform="matrix(0.3375,0,0,0.3375,136.96358,-2.8188527)" />
    <g
       id="g1053"
       style="fill:#82d1f5;fill-opacity:1"
       transform="matrix(0.1,0,0,0.1,8.3484168,22.672291)" />
    <g
       id="g1055"
       style="fill:#82d1f5;fill-opacity:1"
       transform="matrix(0.1,0,0,0.1,8.3484168,22.672291)" />
    <g
       id="g1057"
       style="fill:#82d1f5;fill-opacity:1"
       transform="matrix(0.1,0,0,0.1,8.3484168,22.672291)" />
    <g
       id="g1059"
       style="fill:#82d1f5;fill-opacity:1"
       transform="matrix(0.1,0,0,0.1,8.3484168,22.672291)" />
    <g
       id="g1061"
       style="fill:#82d1f5;fill-opacity:1"
       transform="matrix(0.1,0,0,0.1,8.3484168,22.672291)" />
    <g
       id="g1063"
       style="fill:#82d1f5;fill-opacity:1"
       transform="matrix(0.1,0,0,0.1,8.3484168,22.672291)" />
    <g
       id="g1065"
       style="fill:#82d1f5;fill-opacity:1"
       transform="matrix(0.1,0,0,0.1,8.3484168,22.672291)" />
    <g
       id="g1067"
       style="fill:#82d1f5;fill-opacity:1"
       transform="matrix(0.1,0,0,0.1,8.3484168,22.672291)" />
    <g
       id="g1069"
       style="fill:#82d1f5;fill-opacity:1"
       transform="matrix(0.1,0,0,0.1,8.3484168,22.672291)" />
    <g
       id="g1071"
       style="fill:#82d1f5;fill-opacity:1"
       transform="matrix(0.1,0,0,0.1,8.3484168,22.672291)" />
    <g
       id="g1073"
       style="fill:#82d1f5;fill-opacity:1"
       transform="matrix(0.1,0,0,0.1,8.3484168,22.672291)" />
    <g
       id="g1075"
       style="fill:#82d1f5;fill-opacity:1"
       transform="matrix(0.1,0,0,0.1,8.3484168,22.672291)" />
    <g
       id="g1077"
       style="fill:#82d1f5;fill-opacity:1"
       transform="matrix(0.1,0,0,0.1,8.3484168,22.672291)" />
    <g
       id="g1079"
       style="fill:#82d1f5;fill-opacity:1"
       transform="matrix(0.1,0,0,0.1,8.3484168,22.672291)" />
    <g
       id="g1081"
       style="fill:#82d1f5;fill-opacity:1"
       transform="matrix(0.1,0,0,0.1,8.3484168,22.672291)" />
    <rect
       y="27.517857"
       x="13.633255"
       height="37.870159"
       width="37.870159"
       id="rect2032-5"
       style="opacity:1;fill:#ebeded;fill-opacity:1;stroke:none;stroke-width:44.29134369;stroke-linecap:butt;stroke-miterlimit:4;stroke-dasharray:none;stroke-opacity:1" />
    <rect
       y="65.388016"
       x="13.633255"
       height="37.870159"
       width="37.870159"
       id="rect2032-5-5"
       style="opacity:1;fill:#82d1f5;fill-opacity:1;stroke:none;stroke-width:44.29134369;stroke-linecap:butt;stroke-miterlimit:4;stroke-dasharray:none;stroke-opacity:1" />
    <rect
       y="27.517857"
       x="51.503414"
       height="37.870159"
       width="37.870159"
       id="rect2032-5-6"
       style="opacity:1;fill:#82d1f5;fill-opacity:1;stroke:none;stroke-width:44.29134369;stroke-linecap:butt;stroke-miterlimit:4;stroke-dasharray:none;stroke-opacity:1" />
    <rect
       y="77.001518"
       x="62.611988"
       height="37.870159"
       width="37.870159"
       id="rect2032-5-2"
       style="opacity:1;fill:#82d1f5;fill-opacity:1;stroke:none;stroke-width:44.29134369;stroke-linecap:butt;stroke-miterlimit:4;stroke-dasharray:none;stroke-opacity:1" />
  </g>
  <defs
     id="defs2449" />
</svg>
